<?xml version="1.0" encoding="UTF-8"?>
<svg id="Layer_1" data-name="Layer 1" xmlns="http://www.w3.org/2000/svg" viewBox="0 0 526.7 271.23">
  <defs>
    <style>.cls-1 { fill: #FA4900; }</style>
  </defs>
  <g id="ZMQFal">
    <path class="cls-1" d="M6.7,157.85c3.65.85,5.17-.75,7.86-2.17,39.18-20.68,83.67-73.65,124.07-94.28,40.76-20.81,115.88-3.57,100.14,54.19l-5.57-24.42c-13.34-45.71-111.13-42.27-112.48,7.97-1.25,46.6,87.26,38.63,114.39,63.49,17.81,16.31,13.74,52.56,36.38,66.03,25.71,15.31,95.27,9.19,101.06-27.6,9.52-60.43-87.93-45.36-115.9-73.23-12.86-12.81-11.29-38.6-1.86-53,20.24-30.9,98.28-29.79,114.62,7.38l7.74,22.25c15.08-57.15,93.79-69.39,129.08-22.95l13.77,25.19V3.33l3.35-3.29,3.35,3.29v261.23l-4.47-.02c3.2-3.72-2.23-7.31-2.23-7.76v-63.36h-2.23v33.35l-3.37-22.24-3.28.03c-23.38,48.7-102.99,51.13-127.28,2.22-3.66-.6-2.08,3-2.2,5.5-.28,5.54.22,11.18-.01,16.7-9.94,2.16-.09-15.36-6.66-17.76l-1.15,26.66-3.31-19.98c-.18,2.34-1.55,5.21-3.23,6.78-27.87,26.03-95.94,24.44-118.44-9.01l-3.31,8.87-.05-13.32c-3.89-.52-2.1,5.05-2.21,7.75-.26,6.29.2,12.64-.02,18.91-5.82-.44,1.81-20.81-5.53-17.76-28.94,31.88-89.32,28.82-119.43-.02v45.58c0,.43-5.05,5.51-6.7,5.56v-65.58c0-3.53-35.85-48.51-41.26-54.5-8.43-9.33-4.11-.09-6.72.05l-1.14-8.91-2.23,13.33c-6.79-2.51-4.04-11.64-4.44-17.79-7.33-7.31-44.46,27.16-49.1,34.47v67.81h-2.21c2.68-5.2-4.49-11.55-4.49-12.23V0l6.7,3.33v154.51ZM368.22,162.29c.06-34.47,11.86-82.69-29.69-98.23-34.71-12.98-89.89-3-84.15,43.82,2.32,18.89,22.65,24.06,37.99,28.84,25.43,7.93,53.55,9.96,75.85,25.57ZM430.15,60.56c-75.66,12.74-81.64,188.39,28.23,174.86,85.55-10.53,87.37-194.33-28.23-174.86ZM116.04,86.72l-53.58,41.02,40.17,53.64,11.18-3.5c.35,19.01,8.12,39.41,25.21,49.36,32.94,19.18,109.7,9.56,101.47-41.06-6.78-41.7-82.69-33.66-110.05-54.91l-2.09-.14-2.26,4.52-1.14-8.91-4.42,13.32c1.54-18.51-7.43-34.38-4.5-53.33Z"/>
  </g>
</svg>
